<svg width="16" height="19" viewBox="0 0 16 19" fill="none" xmlns="http://www.w3.org/2000/svg">
<path d="M7.99911 0.473633C9.15987 0.473633 10.1482 1.21027 10.5144 2.23804H13.3319C14.039 2.23804 14.7172 2.51688 15.2173 3.01322C15.7173 3.50956 15.9982 4.18273 15.9982 4.88466L16 10.3632C15.4167 9.58625 14.6584 8.95559 13.7857 8.52161C12.913 8.08764 11.95 7.86238 10.9739 7.86387C7.52005 7.86387 4.71948 10.6287 4.71948 14.0393C4.71959 15.0052 4.9487 15.9576 5.38828 16.8193C5.82786 17.6811 6.46557 18.4281 7.24986 18.9999H2.66637C1.9592 18.9999 1.281 18.7211 0.780962 18.2248C0.28092 17.7284 0 17.0553 0 16.3533V4.88466C0 4.18273 0.28092 3.50956 0.780962 3.01322C1.281 2.51688 1.9592 2.23804 2.66637 2.23804H5.48383C5.66782 1.72189 6.00851 1.27505 6.45897 0.959057C6.90943 0.643068 7.44751 0.473475 7.99911 0.473633ZM10.9739 9.07867C13.7487 9.07867 15.9982 11.2992 15.9982 14.0393C15.9982 16.7786 13.7496 18.9999 10.9739 18.9999C8.19909 18.9999 5.94956 16.7786 5.94956 14.0393C5.94956 11.2992 8.1982 9.07867 10.9739 9.07867ZM10.4388 11.0601C10.2638 11.0606 10.0961 11.1296 9.97208 11.2522C9.84809 11.3748 9.77786 11.541 9.77669 11.7147V14.4407L9.78558 14.5466C9.83802 14.8615 10.1144 15.0935 10.4388 15.0935H12.2804L12.3871 15.0847C12.5482 15.0557 12.6927 14.9683 12.7924 14.8394C12.8922 14.7105 12.9401 14.5494 12.9267 14.3874C12.9134 14.2254 12.8399 14.0742 12.7204 13.963C12.601 13.8519 12.4441 13.7888 12.2804 13.7861H11.101V11.7147L11.0921 11.6088C11.0664 11.4552 10.9865 11.3157 10.8666 11.2151C10.7468 11.1146 10.5948 11.0597 10.438 11.0601H10.4388ZM7.99911 2.23804C7.88238 2.23803 7.76679 2.26083 7.65894 2.30516C7.5511 2.34949 7.4531 2.41447 7.37055 2.49639C7.28801 2.57831 7.22253 2.67557 7.17785 2.78261C7.13318 2.88966 7.11019 3.00439 7.11019 3.12025C7.11019 3.23611 7.13318 3.35084 7.17785 3.45789C7.22253 3.56493 7.28801 3.66219 7.37055 3.74411C7.4531 3.82603 7.5511 3.89101 7.65894 3.93534C7.76679 3.97967 7.88238 4.00247 7.99911 4.00245C8.23481 4.00242 8.46084 3.90946 8.62749 3.74402C8.79414 3.57857 8.88777 3.3542 8.88777 3.12025C8.88777 2.8863 8.79414 2.66193 8.62749 2.49648C8.46084 2.33104 8.23481 2.23808 7.99911 2.23804Z" fill="white"/>
</svg>
