<svg width="27" height="26" viewBox="0 0 27 26" fill="none" xmlns="http://www.w3.org/2000/svg">
<path d="M4.15264 25.4414H22.845C23.993 25.4414 24.9219 24.5126 24.9219 23.3645V9.8645H2.07572V23.3645C2.07572 24.5126 3.00457 25.4414 4.15264 25.4414Z" fill="#FF3C34"/>
<path d="M5.19482 6.23077H13.5025C13.9237 6.23077 14.2987 5.97692 14.4602 5.59038C14.6217 5.20385 14.5294 4.75385 14.2352 4.45961L10.0814 0.305769C9.8852 0.109615 9.61982 0 9.34867 0C6.48713 0 4.15636 2.33077 4.15636 5.19231C4.15636 5.76346 4.62367 6.23077 5.19482 6.23077ZM10.9929 4.15385H6.40636C6.7929 3.06923 7.76213 2.25577 8.93905 2.1L10.9929 4.15385Z" fill="white"/>
<path d="M13.5015 6.23077H21.8092C22.3803 6.23077 22.8477 5.76346 22.8477 5.19231C22.8477 2.33077 20.5169 0 17.6553 0C17.3784 0 17.113 0.109615 16.9227 0.305769L12.7688 4.45961C12.4688 4.75961 12.3823 5.20385 12.5438 5.59038C12.7054 5.97692 13.0803 6.23077 13.5015 6.23077ZM20.5919 4.15385H16.0053L18.0592 2.1C19.2361 2.25577 20.2053 3.06923 20.5919 4.15385Z" fill="white"/>
<path d="M0.51923 10.384H26.4808C26.7692 10.384 27 10.1532 27 9.86478V6.7494C27 6.17825 26.5327 5.71094 25.9615 5.71094H1.03846C0.467308 5.71094 0 6.17825 0 6.7494V9.86478C0 10.1532 0.230768 10.384 0.51923 10.384Z" fill="#FFBA0A"/>
<path d="M15.5781 10.3835H11.4243V25.4412H15.5781V10.3835Z" fill="#FFF5F5"/>
<path d="M15.5781 5.71094H11.4243V10.384H15.5781V5.71094Z" fill="white"/>
</svg>
